<svg width="24" height="24" viewBox="0 0 14 14" fill="none" xmlns="http://www.w3.org/2000/svg">
<path fill-rule="evenodd" clip-rule="evenodd" d="M1.16667 4.08331C1.16667 3.61918 1.35105 3.17406 1.67923 2.84588C2.00742 2.51769 2.45254 2.33331 2.91667 2.33331H11.0833C11.5475 2.33331 11.9926 2.51769 12.3208 2.84588C12.649 3.17406 12.8333 3.61918 12.8333 4.08331V4.66665H1.16667V4.08331ZM1.16667 5.83331V9.91665C1.16667 10.3808 1.35105 10.8259 1.67923 11.1541C2.00742 11.4823 2.45254 11.6666 2.91667 11.6666H11.0833C11.5475 11.6666 11.9926 11.4823 12.3208 11.1541C12.649 10.8259 12.8333 10.3808 12.8333 9.91665V5.83331H1.16667ZM4.08334 6.99998C3.92863 6.99998 3.78026 7.06144 3.67086 7.17083C3.56146 7.28023 3.50001 7.4286 3.50001 7.58331C3.50001 7.73802 3.56146 7.8864 3.67086 7.99579C3.78026 8.10519 3.92863 8.16665 4.08334 8.16665H7C7.15471 8.16665 7.30309 8.10519 7.41248 7.99579C7.52188 7.8864 7.58334 7.73802 7.58334 7.58331C7.58334 7.4286 7.52188 7.28023 7.41248 7.17083C7.30309 7.06144 7.15471 6.99998 7 6.99998H4.08334Z" fill="black"/>
</svg>
