<svg width="48" height="48" viewBox="0 0 24 24" fill="none" xmlns="http://www.w3.org/2000/svg">
<g filter="url(#filter0_i_28_156)">
<path d="M12 11.5C11.337 11.5 10.7011 11.2366 10.2323 10.7678C9.76342 10.2989 9.50003 9.66304 9.50003 9C9.50003 8.33696 9.76342 7.70107 10.2323 7.23223C10.7011 6.76339 11.337 6.5 12 6.5C12.6631 6.5 13.299 6.76339 13.7678 7.23223C14.2366 7.70107 14.5 8.33696 14.5 9C14.5 9.3283 14.4354 9.65339 14.3097 9.95671C14.1841 10.26 13.9999 10.5356 13.7678 10.7678C13.5357 10.9999 13.2601 11.1841 12.9567 11.3097C12.6534 11.4353 12.3283 11.5 12 11.5ZM12 2C10.1435 2 8.36304 2.7375 7.05028 4.05025C5.73753 5.36301 5.00003 7.14348 5.00003 9C5.00003 14.25 12 22 12 22C12 22 19 14.25 19 9C19 7.14348 18.2625 5.36301 16.9498 4.05025C15.637 2.7375 13.8565 2 12 2Z" fill="#6076EB" stroke="black" stroke-width="0.5"/>
</g>
<defs>
<filter id="filter0_i_28_156" x="3.05176e-05" y="0" width="24" height="28" filterUnits="userSpaceOnUse" color-interpolation-filters="sRGB">
<feFlood flood-opacity="0" result="BackgroundImageFix"/>
<feBlend mode="normal" in="SourceGraphic" in2="BackgroundImageFix" result="shape"/>
<feColorMatrix in="SourceAlpha" type="matrix" values="0 0 0 0 0 0 0 0 0 0 0 0 0 0 0 0 0 0 127 0" result="hardAlpha"/>
<feOffset dy="4"/>
<feGaussianBlur stdDeviation="2"/>
<feComposite in2="hardAlpha" operator="arithmetic" k2="-1" k3="1"/>
<feColorMatrix type="matrix" values="0 0 0 0 0 0 0 0 0 0 0 0 0 0 0 0 0 0 0.25 0"/>
<feBlend mode="normal" in2="shape" result="effect1_innerShadow_28_156"/>
</filter>
</defs>
</svg>
