<svg width="24" height="24" viewBox="0 0 8 10" fill="none" xmlns="http://www.w3.org/2000/svg">
<g clip-path="url(#clip0_28_168)">
<path d="M7.14286 0.625H0.857143C0.383929 0.625 0 1.04492 0 1.5625V8.4375C0 8.95508 0.383929 9.375 0.857143 9.375H7.14286C7.61607 9.375 8 8.95508 8 8.4375V1.5625C8 1.04492 7.61607 0.625 7.14286 0.625ZM4.28571 6.25H3.42857V7.1875C3.42857 7.35938 3.3 7.5 3.14286 7.5H2.57143C2.41429 7.5 2.28571 7.35938 2.28571 7.1875V2.8125C2.28571 2.64062 2.41429 2.5 2.57143 2.5H4.28571C5.23036 2.5 6 3.3418 6 4.375C6 5.4082 5.23036 6.25 4.28571 6.25ZM4.28571 3.75H3.42857V5H4.28571C4.6 5 4.85714 4.71875 4.85714 4.375C4.85714 4.03125 4.6 3.75 4.28571 3.75Z" fill="#1D30D5"/>
</g>
<defs>
<clipPath id="clip0_28_168">
<rect width="8" height="10" fill="white"/>
</clipPath>
</defs>
</svg>
