<svg width="24" height="24" viewBox="0 0 12 12" fill="none" xmlns="http://www.w3.org/2000/svg">
<path d="M5.86999 6.68L7.06999 3.855L6.52999 2.75H5.24999V2H6.99999L7.36499 2.75H10.875L10.375 4.5H8.21999L8.55499 5.185C8.93468 5.03024 9.34658 4.9712 9.75445 5.01308C10.1623 5.05496 10.5536 5.19647 10.8939 5.42516C11.2342 5.65384 11.5131 5.96269 11.706 6.3245C11.8989 6.68631 11.9998 7.08999 12 7.5C12 8.88 10.88 10 9.49999 10C8.11999 10 6.99999 8.88 6.99999 7.5C6.99999 6.725 7.35499 6.03 7.90999 5.575L7.49999 4.75L6.12499 8H4.94999C4.85539 8.46346 4.63125 8.89057 4.3036 9.23172C3.97594 9.57288 3.55823 9.81408 3.09897 9.92731C2.6397 10.0405 2.15774 10.0212 1.70906 9.87141C1.26037 9.72167 0.863373 9.4477 0.564175 9.08134C0.264976 8.71497 0.0758544 8.27124 0.0187742 7.80168C-0.0383059 7.33212 0.0389981 6.85601 0.241708 6.42863C0.444418 6.00125 0.764215 5.64015 1.16396 5.38727C1.5637 5.13438 2.02698 5.0001 2.49999 5C3.79499 5 4.85999 5.985 4.99999 7.25H5.28999L4.14999 4.5H3.74999C3.54499 4.5 3.37499 4.33 3.37499 4.125C3.37499 3.92 3.54499 3.75 3.74999 3.75H5.12499C5.32999 3.75 5.49999 3.92 5.49999 4.125C5.49999 4.33 5.32999 4.5 5.12499 4.5H4.98499L5.86999 6.68ZM2.49999 5.75C1.53499 5.75 0.749995 6.535 0.749995 7.5C0.750904 7.92022 0.90282 8.32611 1.17804 8.64366C1.45326 8.96122 1.83344 9.16927 2.24927 9.22989C2.66509 9.2905 3.08885 9.19964 3.44327 8.97387C3.79769 8.74811 4.05916 8.40247 4.17999 8H1.99999V7.25H4.23499C4.10999 6.4 3.37999 5.75 2.49999 5.75ZM9.49999 5.75C9.28499 5.75 9.07499 5.79 8.88499 5.86L9.84999 7.84L9.17499 8.17L8.24999 6.275C7.93999 6.59 7.74999 7.025 7.74999 7.5C7.74999 8.465 8.53499 9.25 9.49999 9.25C10.465 9.25 11.25 8.465 11.25 7.5C11.25 6.535 10.465 5.75 9.49999 5.75Z" fill="#1DA711"/>
</svg>
